<svg width="98" height="98" viewBox="0 0 98 98" fill="none" xmlns="http://www.w3.org/2000/svg">
<path d="M8.07031 4.45312H89.8308V85.458H8.07031V4.45312Z" fill="url(#paint0_radial_167_586)"/>
<g filter="url(#filter0_d_167_586)">
<path d="M8.07031 4.45367H89.8308V85.4586H8.07031V4.45367ZM4.35474 89.2423H93.5643V0.669922H4.35474V89.2423ZM67.4659 43.3644C69.3594 43.3644 70.0383 43.3644 70.2169 43.2916C70.2169 43.0188 70.2883 42.8369 70.2883 42.6549C70.2883 40.6175 69.3237 36.8338 65.4652 36.8338C61.8926 36.8338 60.3742 40.0172 59.9991 43.3826H67.4659V43.3644ZM59.9276 48.5489C59.9991 53.6606 62.3749 57.0987 68.0376 57.0987C70.2347 57.0987 72.1283 56.7894 74.0932 55.9344C74.3612 55.8253 74.5398 55.8617 74.5398 56.2073V60.937C74.5398 61.319 74.4326 61.5009 74.1647 61.701C72.1997 62.6833 69.7346 63.1381 66.6978 63.1381C56.8908 63.1381 53.211 55.7525 53.211 47.5483C53.211 38.6165 57.7483 31.3037 65.7332 31.3037C73.8431 31.3037 76.6655 38.2345 76.6655 43.8737C76.6655 45.6929 76.5584 47.1663 76.3619 47.894C76.2904 48.2032 76.1832 48.3124 75.8796 48.3851C75.1293 48.4943 72.95 48.658 69.681 48.658H59.9455V48.5489H59.9276ZM39.9921 44.6923C38.956 40.4902 36.4194 31.3401 35.4905 26.9015H35.4191C34.6331 31.3219 32.5967 38.8166 31.0783 44.6923H39.9921ZM29.5599 50.8227L26.6303 62.1376C26.5589 62.4468 26.4517 62.556 26.0766 62.556H20.5925C20.2174 62.556 20.1459 62.4468 20.2174 61.9921L30.7746 24.4093C30.9533 23.7362 31.0783 23.1905 31.1498 21.2986C31.1498 21.0257 31.2569 20.9166 31.4534 20.9166H39.2597C39.5277 20.9166 39.6348 20.9894 39.7063 21.2986L51.514 62.0648C51.5854 62.3741 51.514 62.556 51.2103 62.556H45.0832C44.7795 62.556 44.6008 62.4468 44.5294 62.174L41.4748 50.8227H29.5599Z" fill="#D8A1FF"/>
</g>
<defs>
<filter id="filter0_d_167_586" x="0.354736" y="0.669922" width="97.2095" height="96.5723" filterUnits="userSpaceOnUse" color-interpolation-filters="sRGB">
<feFlood flood-opacity="0" result="BackgroundImageFix"/>
<feColorMatrix in="SourceAlpha" type="matrix" values="0 0 0 0 0 0 0 0 0 0 0 0 0 0 0 0 0 0 127 0" result="hardAlpha"/>
<feOffset dy="4"/>
<feGaussianBlur stdDeviation="2"/>
<feComposite in2="hardAlpha" operator="out"/>
<feColorMatrix type="matrix" values="0 0 0 0 0 0 0 0 0 0 0 0 0 0 0 0 0 0 0.25 0"/>
<feBlend mode="normal" in2="BackgroundImageFix" result="effect1_dropShadow_167_586"/>
<feBlend mode="normal" in="SourceGraphic" in2="effect1_dropShadow_167_586" result="shape"/>
</filter>
<radialGradient id="paint0_radial_167_586" cx="0" cy="0" r="1" gradientUnits="userSpaceOnUse" gradientTransform="translate(35.0228 22.6143) scale(62.1407 61.2673)">
<stop stop-color="#442F55" stop-opacity="0.98"/>
<stop offset="1" stop-color="#12002C"/>
</radialGradient>
</defs>
</svg>
